HIERARCHY
ROOT hip
{
	OFFSET 0.000000 0.000000 0.000000 
	CHANNELS 6 Xposition Yposition Zposition Xrotation Zrotation Yrotation
	JOINT abdomen
	{
		OFFSET 0.000000 3.402643 0.000000 
		CHANNELS 3 Xrotation Zrotation Yrotation
		JOINT chest
		{
			OFFSET 0.000000 8.438565 -0.680529 
			CHANNELS 3 Xrotation Zrotation Yrotation
			JOINT neck
			{
				OFFSET 0.000000 10.207942 -0.272212 
				CHANNELS 3 Xrotation Zrotation Yrotation
				JOINT head
				{
					OFFSET 0.000000 3.130431 0.000000 
					CHANNELS 3 Xrotation Zrotation Yrotation
					End Site
					{
						OFFSET 0.000000 3.130435 0.000000 
					}
				}
			}
			JOINT lCollar
			{
				OFFSET 3.470700 6.669187 -0.816635 
				CHANNELS 3 Yrotation Zrotation Xrotation
				JOINT lShldr
				{
					OFFSET 3.198488 0.000000 0.000000 
					CHANNELS 3 Zrotation Yrotation Xrotation
					JOINT lForeArm
					{
						OFFSET 10.139888 0.000000 0.000000 
						CHANNELS 3 Yrotation Zrotation Xrotation
						JOINT lHand
						{
							OFFSET 8.370511 0.000000 0.000000 
							CHANNELS 3 Zrotation Yrotation Xrotation
							End Site
							{
								OFFSET 4.083176 0.000000 0.000000 
							}
						}
					}
				}
			}
			JOINT rCollar
			{
				OFFSET -3.470700 6.669187 -0.816635 
				CHANNELS 3 Yrotation Zrotation Xrotation
				JOINT rShldr
				{
					OFFSET -3.198488 0.000000 0.000000 
					CHANNELS 3 Zrotation Yrotation Xrotation
					JOINT rForeArm
					{
						OFFSET -10.139888 0.000000 0.000000 
						CHANNELS 3 Yrotation Zrotation Xrotation
						JOINT rHand
						{
							OFFSET -8.370511 0.000000 0.000000 
							CHANNELS 3 Zrotation Yrotation Xrotation
							End Site
							{
								OFFSET -4.083176 0.000000 0.000000 
							}
						}
					}
				}
			}
		}
	}
	JOINT lThigh
	{
		OFFSET 5.308129 -1.633274 1.361059 
		CHANNELS 3 Xrotation Zrotation Yrotation
		JOINT lShin
		{
			OFFSET -2.041588 -20.007561 0.000000 
			CHANNELS 3 Xrotation Zrotation Yrotation
			JOINT lFoot
			{
				OFFSET 0.000000 -19.190928 -1.224953 
				CHANNELS 3 Xrotation Yrotation Zrotation
				End Site
				{
					OFFSET 0.000000 -2.449906 4.627600 
				}
			}
		}
	}
	JOINT rThigh
	{
		OFFSET -5.308129 -1.633274 1.361059 
		CHANNELS 3 Xrotation Zrotation Yrotation
		JOINT rShin
		{
			OFFSET 2.041588 -20.007561 0.000000 
			CHANNELS 3 Xrotation Zrotation Yrotation
			JOINT rFoot
			{
				OFFSET 0.000000 -19.190928 -1.224953 
				CHANNELS 3 Xrotation Yrotation Zrotation
				End Site
				{
					OFFSET 0.000000 -2.449906 4.627600 
				}
			}
		}
	}
}
MOTION
Frames: 19
Frame Time: 0.016667
-15.926079 34.244175 21.943295 22.162500 -5.610320 1.420250 -11.494900 1.716740 5.163360 28.129200 -4.520940 2.524190 -25.598700 -12.465800 9.757600 -1.368100 -0.552949 3.012500 2.000000 -2.000000 0.000000 -26.231701 54.323502 -164.664993 21.543200 -0.342013 0.050263 0.121033 -0.136665 164.669998 -2.000000 2.000000 0.000000 -106.569000 -113.714996 43.019600 -38.564899 0.321748 0.085233 -0.059755 0.041103 -151.764999 -83.668167 22.376896 17.392239 54.848633 2.259852 3.424563 4.095042 5.962697 -4.061379 -11.985001 -27.040409 -32.466015 68.284370 -1.608189 -3.897017 -7.364142 7.527816 -3.299754 
-15.851484 33.517570 23.882813 18.437599 -9.356900 5.606800 -12.269600 2.325740 5.885080 27.298700 -3.627150 3.008620 -25.780399 -11.780200 8.216190 -1.552350 -0.046977 2.388860 2.000000 -2.000000 0.000000 -28.112101 56.098900 -169.677002 20.576401 -0.342842 0.048110 0.115537 -0.133128 167.003998 -2.000000 2.000000 0.000000 -101.762001 -115.408997 35.211102 -34.414398 0.327636 0.077273 -0.060111 0.042423 -152.253998 -81.101974 22.410082 21.971663 55.816280 2.119099 3.504616 5.037823 3.131930 -4.547009 -2.909239 -21.515886 -31.662436 67.831223 -1.885834 -3.821788 -7.675224 3.947538 -3.734423 
-15.815987 32.781979 25.851429 14.340700 -12.492300 9.939160 -13.130100 2.747930 6.352190 26.500299 -2.603140 3.342200 -25.891100 -10.670500 6.415330 -1.668460 0.652942 1.704190 2.000000 -2.000000 0.000000 149.298004 122.706001 3.710600 19.365499 -0.343829 0.045395 0.111051 -0.139765 168.957001 -2.000000 2.000000 0.000000 -98.221397 -118.148003 28.048800 -30.176100 0.333038 0.068725 -0.059699 0.040891 -151.686996 -77.788551 22.023026 23.742701 58.091682 1.839915 3.646207 1.060653 -2.610244 -3.719805 4.691459 -14.989415 -28.537935 67.938736 -2.279420 -3.725685 -9.092616 -0.581966 -4.065585 
-15.745101 32.132999 27.814764 10.304800 -15.182800 14.459200 -14.095700 2.845320 6.612030 25.891800 -1.964120 3.517560 -26.370399 -9.607430 4.516790 -1.844030 1.255410 0.917806 2.000000 -2.000000 0.000000 146.389008 122.811996 -3.916130 18.252199 -0.344685 0.042880 0.109002 -0.128493 169.865005 -2.000000 2.000000 0.000000 -94.689903 -122.061996 19.988501 -25.957300 0.337773 0.059845 -0.058742 0.037072 -150.281006 -75.357803 21.213829 22.261654 61.553944 1.460827 3.839395 -7.623742 -5.088220 -4.223855 10.460861 -7.948655 -24.088200 68.413910 -2.559998 -3.684313 -10.447843 -5.854236 -4.542356 
-15.637817 31.564684 29.656324 6.884560 -17.284401 19.117300 -15.269500 2.443390 6.785090 25.149099 -1.946860 3.554340 -27.881599 -8.681190 2.611520 -2.401240 1.750180 0.049247 2.000000 -2.000000 0.000000 -36.408298 55.384399 169.054993 17.656500 -0.345124 0.041528 0.110079 -0.129291 169.386993 -2.000000 2.000000 0.000000 -90.930298 -127.260002 10.368100 -21.972900 0.341633 0.051158 -0.057499 0.031381 -148.201004 -75.206383 19.675386 18.105368 65.943993 1.057917 4.041560 -14.497231 -1.234462 -4.540597 13.581893 -1.688635 -19.880936 70.506393 -2.560961 -3.702920 -11.944079 -10.646009 -5.224101 
-15.557383 31.122408 31.300732 4.695670 -18.097300 23.264500 -16.526199 1.374960 7.155090 24.260599 -2.202430 3.548600 -30.562300 -7.960470 0.775106 -3.506200 2.135620 -0.856170 2.000000 -2.000000 0.000000 -39.282600 51.455002 163.266998 17.138901 -0.345493 0.040350 0.109771 -0.129064 169.524002 -2.000000 2.000000 0.000000 -87.420998 -134.171005 -0.508420 -18.183800 0.344736 0.042668 -0.055855 0.021565 -144.645996 -75.971222 17.269979 13.807952 70.097725 0.650971 4.219405 -17.655645 3.507700 -3.813149 13.304431 1.988793 -17.203331 75.052368 -2.158617 -3.813756 -13.790382 -13.490263 -5.993391 
-15.436172 30.910875 32.741241 3.741800 -17.698900 25.723700 -17.586500 -0.059261 7.807680 23.655100 -2.428090 3.589010 -33.124401 -7.375300 -0.787142 -4.621910 2.537560 -1.613470 2.000000 -2.000000 0.000000 -43.024200 45.556499 158.955994 16.054899 -0.346232 0.037871 -179.895996 -179.875000 -7.937300 -2.000000 2.000000 0.000000 94.327797 -36.984001 168.233994 -14.433800 0.347248 0.034081 -0.054432 0.003281 -138.093994 -75.816002 15.096468 10.964823 73.122261 0.333306 4.335155 -19.881510 5.923601 -3.027055 9.877291 2.528826 -15.554856 81.065544 -1.468457 -3.974478 -15.414370 -13.782617 -6.381585 
-15.156222 30.943005 33.945621 2.973730 -16.473101 26.312901 -18.379299 -1.468870 8.810630 23.363199 -2.984700 3.769450 -34.377998 -7.082300 -1.825960 -5.199900 2.766110 -2.125680 2.000000 -2.000000 0.000000 -47.395302 37.865700 156.563995 14.414200 -0.347260 0.034094 -179.904999 -179.873001 -3.708760 -2.000000 2.000000 0.000000 94.368599 -26.692900 156.194000 -10.976700 0.349062 0.026035 -0.056158 -0.013939 -128.425995 -73.966415 13.941261 9.467327 75.097343 0.090717 4.412829 -22.106636 7.138636 -2.212449 4.411559 0.824245 -13.647968 87.404022 -0.672782 -4.112415 -16.719398 -12.455675 -6.077838 
-14.766411 31.057138 34.872860 0.839869 -15.184000 26.418100 -18.830000 -2.346460 9.507640 23.003700 -3.883190 3.915930 -34.401100 -6.881620 -2.257160 -5.239460 2.842990 -2.306130 2.000000 -2.000000 0.000000 -52.844002 28.434700 153.283997 12.500100 -0.348323 0.029653 -179.914993 -179.884003 1.613500 -2.000000 2.000000 0.000000 92.971397 -15.871600 155.744003 -8.701270 0.349990 0.020686 -0.056086 -0.013452 -128.600998 -70.712631 13.589727 8.128710 76.687592 -0.057845 4.464740 -24.181198 8.176031 -1.364011 -1.573375 -0.854887 -11.655670 93.039902 0.084522 -4.217684 -18.362947 -11.512380 -5.504784 
-14.425463 31.217896 35.609688 -2.999650 -14.024500 27.660801 -18.823900 -2.581010 9.183790 22.437000 -4.333610 3.754010 -34.009102 -6.468400 -2.342900 -5.093320 2.930640 -2.283460 2.000000 -2.000000 0.000000 -59.185501 17.576200 149.037003 10.888800 -0.349102 0.025888 -179.923004 -179.904007 6.261920 -2.000000 2.000000 0.000000 90.886398 -5.089370 155.300995 -8.418060 0.350090 0.020018 -0.056598 -0.016721 -127.419998 -66.310699 13.363605 6.431389 78.012161 -0.170989 4.494949 -25.883345 8.507422 -0.747943 -7.172657 -1.773362 -11.298124 95.881660 0.772313 -4.350059 -19.390804 -11.653434 -5.454361 
-14.222357 31.430887 36.243160 -7.573700 -12.520300 30.184999 -18.433201 -2.473280 7.985040 21.790001 -3.954170 3.283600 -33.649300 -5.780950 -2.458800 -4.918630 3.143940 -2.210130 2.000000 -2.000000 0.000000 -65.676003 6.289540 150.220993 10.478600 -0.349283 0.024926 -179.923004 -179.904007 6.144730 -2.000000 2.000000 0.000000 89.020500 5.722900 154.514999 -9.843860 0.349550 0.023377 -0.057921 -0.023679 -124.890999 -61.153244 12.790658 4.828810 78.775581 -0.194985 4.492396 -27.096666 8.264928 -0.479403 -12.452825 -2.520669 -12.660206 96.013985 1.215575 -4.486858 -20.626379 -12.111320 -5.897357 
-14.156863 31.618717 36.808449 -11.853300 -10.020600 33.203499 -17.850300 -2.393230 6.489230 21.162901 -2.909990 2.634780 -33.566200 -5.078590 -2.612970 -4.822540 3.395460 -2.165580 2.000000 -2.000000 0.000000 -71.973602 -4.863880 158.809998 11.494300 -0.348822 0.027305 -179.917007 -179.895996 2.707230 -2.000000 2.000000 0.000000 87.827599 16.603901 158.046997 -12.285300 0.348433 0.029094 -0.056409 -0.015561 -127.839996 -55.679180 11.699417 3.884184 79.086929 -0.173505 4.469892 -27.951435 7.792250 -0.414157 -17.800121 -3.744638 -13.947452 93.890129 1.351422 -4.618463 -22.032349 -11.929800 -6.149693 
-14.199551 31.703646 37.351379 -15.647900 -7.027310 36.268902 -17.319799 -2.463320 5.292270 20.527300 -1.992190 2.090860 -33.979198 -4.711740 -2.794450 -4.969770 3.461930 -2.243500 2.000000 -2.000000 0.000000 102.271004 -164.248993 -7.931650 13.857600 -0.347584 0.032806 -179.914001 -179.891998 0.793173 -2.000000 2.000000 0.000000 87.434097 26.976101 166.184006 -15.625200 0.346511 0.036827 -0.054458 0.004347 -138.475006 -50.548615 10.571301 3.183965 79.505585 -0.141028 4.448966 -28.636555 7.182055 -0.570806 -23.561483 -4.752789 -13.873437 90.105423 1.176019 -4.667549 -23.230240 -12.138137 -6.313914 
-14.300994 31.727461 37.948345 -19.168600 -4.345600 39.203499 -16.932899 -2.345100 4.156800 19.960800 -1.074160 1.583430 -34.653198 -4.586310 -2.923650 -5.243850 3.479130 -2.321740 2.000000 -2.000000 0.000000 96.225304 -153.714996 5.875440 17.431801 -0.345285 0.041017 -179.916000 -179.895004 2.062700 -2.000000 2.000000 0.000000 -93.257599 143.033005 -5.948990 -19.599800 0.343642 0.045865 -0.058209 0.034753 -149.431000 -46.141136 10.124601 2.251909 79.964020 -0.112100 4.442035 -28.978741 6.296035 -0.884738 -29.826275 -4.896193 -12.273051 84.947937 0.709168 -4.592349 -24.048767 -13.046060 -6.613729 
-14.387830 31.836428 38.610580 -22.319401 -2.023760 42.002300 -16.627300 -2.123590 2.911280 19.648399 -0.195288 1.008960 -35.352699 -4.498410 -2.968220 -5.489070 3.554240 -2.330500 2.000000 -2.000000 0.000000 -90.630699 -36.685699 -161.712997 21.924101 -0.341677 0.051107 -179.921005 -179.901001 5.060730 -2.000000 2.000000 0.000000 -94.819702 133.166000 0.979664 -24.150700 0.339598 0.055939 -0.063984 0.054618 -156.824005 -42.175690 10.203218 1.085417 80.254768 -0.062268 4.414706 -29.262030 5.099563 -1.371274 -36.168671 -4.568163 -9.354558 78.659775 -0.002744 -4.434903 -24.868269 -13.767303 -6.944501 
-14.420970 32.114803 39.296963 -25.019501 0.044246 44.608299 -16.372299 -1.891950 1.722880 19.687500 0.527283 0.460751 -36.059101 -4.613710 -2.939670 -5.694700 3.571770 -2.326960 2.000000 -2.000000 0.000000 81.341797 -133.438004 30.276899 27.519800 -0.336095 0.063230 0.073122 -0.101029 -171.589996 -2.000000 2.000000 0.000000 -98.172302 123.646004 5.514120 -29.551100 0.333780 0.067432 -0.077788 0.064693 -160.701004 -38.486572 10.567273 -0.162200 80.074745 0.011556 4.369937 -29.394867 3.720389 -1.942031 -42.194946 -4.194459 -5.530743 71.788208 -0.875393 -4.138178 -25.472763 -14.105536 -7.213157 
-14.385585 32.537197 40.012222 -27.202999 1.858860 46.935600 -16.335300 -1.708370 0.825152 19.804600 0.937419 0.056056 -36.666901 -4.729440 -2.929660 -5.890470 3.579690 -2.331040 2.000000 -2.000000 0.000000 72.159500 -124.712997 43.505699 34.277699 -0.327820 0.077058 0.077909 -0.093373 -168.328003 -2.000000 2.000000 0.000000 -105.440002 115.021004 4.969770 -35.732800 0.325828 0.079847 -0.081127 0.071795 -163.503998 -34.999363 11.175246 -1.194503 79.462524 0.144747 4.323264 -29.476799 2.454292 -2.495321 -48.235321 -3.886817 -1.195732 65.671135 -1.846828 -3.778589 -26.122822 -14.926828 -7.592779 
-14.261337 33.127983 40.769157 -28.882500 3.652740 48.759102 -16.539499 -1.593890 0.188555 19.882700 1.162030 -0.228510 -36.991299 -4.484170 -3.002560 -5.892040 3.752860 -2.283110 2.000000 -2.000000 0.000000 62.054298 -116.717003 57.844700 41.777802 -0.316803 0.091144 0.073386 -0.075705 -165.076004 -2.000000 2.000000 0.000000 -120.429001 107.625999 -4.474680 -42.129299 0.316242 0.091715 -0.085133 0.079296 -166.541000 -31.330734 11.889624 -1.640599 78.066498 0.336523 4.279906 -29.295364 1.107243 -3.050291 -54.033318 -3.634155 3.360384 60.086193 -2.736752 -3.436779 -26.242361 -16.002172 -7.947598 
-14.032393 33.931087 41.547096 -30.069799 5.761840 49.915699 -16.892099 -1.771250 -0.032785 19.970600 0.966746 -0.351683 -36.984798 -3.742360 -3.182430 -5.689300 4.043530 -2.192010 2.000000 -2.000000 0.000000 50.232800 -108.813004 73.841400 49.639099 -0.303387 0.104231 0.069654 -0.068278 -162.106995 -2.000000 2.000000 0.000000 31.206600 77.137802 150.679993 -47.998501 0.306333 0.101603 -0.089119 0.085929 -169.304001 -26.942530 12.415402 -1.255802 75.788124 0.581326 4.208167 -28.617043 -0.146005 -3.501732 -60.131382 -3.368729 7.407488 57.590832 -3.660038 -3.216623 -26.878334 -16.695032 -7.802907 
